# xmcd
#
# Track frame offsets: 
#        182
#        11913
#        23387
#        37146
#        49501
#        62087
#        73731
#        84346
#        97772
#        109890
#        121855
#        132222
#        146286
#        160727
#        174917
#        189495
#        201517
#        214133
#        225647
#        237387
#
# Disc length: 3329 seconds
#
# Revision: 0
# Processed by: cddbd v1.5.2PL0 Copyright (c) Steve Scherf et al.
# Submitted via: ExactAudioCopy v0.99pb4
#
DISCID=0b0cff14
DTITLE=Milt Buckner - 1946-1951
DYEAR=2002
DGENRE=R&B
TTITLE0=Tupelo Junction
TTITLE1=Rasing the Roof
TTITLE2=Lights Out
TTITLE3=Tedy Bear
TTITLE4=Jelly Roll
TTITLE5=Hole in the Wall
TTITLE6=Jumpin' In Jack's House
TTITLE7=Back Alley Blues
TTITLE8=Lazy Joe
TTITLE9=Fatstuff Boogie
TTITLE10=Buck's Bop
TTITLE11=Milt's Boogie
TTITLE12=Oo-De-Doop
TTITLE13=M.B. Blues
TTITLE14=Who Shot John?
TTITLE15=Yestesterdays
TTITLE16=Buck-A-Boo
TTITLE17=Red, Red Wine
TTITLE18=Boogie Grunt
TTITLE19=Slow Rock
EXTD=
EXTT0=
EXTT1=
EXTT2=
EXTT3=
EXTT4=
EXTT5=
EXTT6=
EXTT7=
EXTT8=
EXTT9=
EXTT10=
EXTT11=
EXTT12=
EXTT13=
EXTT14=
EXTT15=
EXTT16=
EXTT17=
EXTT18=
EXTT19=
PLAYORDER=
